#!OML:ASF F:\VICON\USERDATA\INSTALL\rory3\rory3.ASF
:FULLY-SPECIFIED
:DEGREES
2829
root -0.561875 20.0698 -0.393293 -1.24873 -6.54485 -0.614655
lowerback 2.66423 0.0615523 -1.05328
upperback -1.43306 0.0446911 0.14738
thorax -2.96655 0.0446531 0.739586
lowerneck -12.7356 -3.66005 -9.8661
upperneck 15.7033 -4.8596 10.0976
head 7.4009 -2.04347 4.45829
rclavicle -6.24929e-015 -1.21259e-014
rhumerus -9.83489 -28.1266 -26.9139
rradius 89.2768
rwrist -10.8673
rhand -43.8547 -0.843167
rfingers 7.12502
rthumb -16.6813 -30.1464
lclavicle -6.24929e-015 -1.21259e-014
lhumerus -9.60198 23.6594 27.7136
lradius 80.9648
lwrist 27.5192
lhand -30.3525 21.986
lfingers 7.12502
lthumb -3.65788 51.9344
rfemur -8.56678 21.9992 13.4454
rtibia 29.8421
rfoot -1.93801 -3.11802
rtoes -7.8884
lfemur -3.07704 -6.24956 -14.1263
ltibia 28.6921
lfoot 2.04474 6.3299
ltoes -17.0029
2830
root -0.571559 20.0701 -0.40385 -1.47195 -6.67648 -0.806726
lowerback 3.09038 0.063959 -0.889683
upperback -1.30494 0.0517522 0.1788
thorax -3.07462 0.0453142 0.67967
lowerneck -12.8329 -3.82282 -9.72737
upperneck 15.2454 -5.02818 9.86308
head 7.27919 -2.13453 4.32909
rclavicle 3.52222e-015 -4.37326e-015
rhumerus -11.5704 -27.9719 -27.3189
rradius 88.3849
rwrist -11.4361
rhand -43.5749 -0.495034
rfingers 7.12502
rthumb -16.412 -29.8207
lclavicle 3.52222e-015 -4.37326e-015
lhumerus -10.8009 24.5539 28.2687
lradius 79.3882
lwrist 28.6009
lhand -30.7464 22.1547
lfingers 7.12502
lthumb -4.03828 52.0962
rfemur -8.30574 22.0609 13.3948
rtibia 30.0084
rfoot -2.3375 -4.75564
rtoes -8.76823
lfemur -2.69196 -6.16727 -13.5475
ltibia 28.6298
lfoot 1.18099 7.10397
ltoes -16.6226
2831
root -0.581627 20.0558 -0.415262 -1.69106 -6.76215 -0.966668
lowerback 3.59148 0.040696 -0.768479
upperback -1.20987 0.0236148 0.219793
thorax -3.25849 0.0297929 0.655548
lowerneck -12.9532 -3.94527 -9.65619
upperneck 14.8194 -5.13447 9.66202
head 7.16738 -2.19623 4.23077
rclavicle -8.1129e-015 -7.65321e-015
rhumerus -13.2574 -27.7676 -27.7573
rradius 87.6108
rwrist -11.8121
rhand -43.3813 -0.0599045
rfingers 7.12502
rthumb -16.2256 -29.4009
lclavicle -8.1129e-015 -7.65321e-015
lhumerus -12.0947 25.486 28.7841
lradius 77.9048
lwrist 29.2725
lhand -31.2956 22.1192
lfingers 7.12502
lthumb -4.56862 52.05
rfemur -8.21569 22.1719 13.2687
rtibia 30.2478
rfoot -2.40739 -6.42726
rtoes -9.62423
lfemur -2.31389 -6.0831 -12.9883
ltibia 28.5439
lfoot 0.676544 7.92157
ltoes -15.8378
2832
root -0.59406 20.0347 -0.42746 -1.96828 -6.85694 -0.958328
lowerback 4.12352 0.0484764 -0.837409
upperback -1.08281 0.0263959 0.216243
thorax -3.42749 0.0328839 0.690501
lowerneck -13.138 -4.06387 -9.69544
upperneck 14.4234 -5.2426 9.64436
head 7.08454 -2.24778 4.21267
rclavicle -1.01629e-014 7.95139e-016
rhumerus -15.0546 -27.4494 -28.1364
rradius 87.0155
rwrist -11.7597
rhand -44.0184 -0.306495
rfingers 7.12502
rthumb -16.8389 -29.5964
lclavicle -1.01629e-014 7.95139e-016
lhumerus -13.3643 26.4192 29.3069
lradius 76.5678
lwrist 29.8196
lhand -31.791 22.1902
lfingers 7.12502
lthumb -5.04698 52.1101
rfemur -8.05599 22.2442 12.9579
rtibia 30.4846
rfoot -2.21372 -8.01653
rtoes -9.959
lfemur -1.90599 -6.11118 -12.6111
ltibia 28.4488
lfoot 0.371724 8.69734
ltoes -15.2549
